<svg id="Layer_1" height="320" width="100%" data-name="Layer 1" xmlns="http://www.w3.org/2000/svg"
     viewBox="0 0 444.74 320">
    <defs>
        <style>
            .cls-1{fill:#fff;}.cls-2{fill:#fee03b;}.cls-3,.cls-7{fill:#f8f6f2;}.cls-3{stroke:#e6e7e8;}.cls-12,.cls-13,.cls-15,.cls-16,.cls-17,.cls-3{stroke-miterlimit:10;}.cls-4{fill:#c49a6c;}.cls-5{fill:#b7d433;}.cls-6{fill:#a6c9ea;}.cls-8{fill:#faab61;}.cls-9{fill:#00aee2;}.cls-10{fill:#47b864;}.cls-11{fill:#ee3560;}.cls-12,.cls-13,.cls-15,.cls-16,.cls-17{fill:none;stroke:#231f20;}.cls-13{stroke-dasharray:5.58
            5.58;}.cls-14{fill:#231f20;}.cls-15{stroke-dasharray:9 9;}.cls-16{stroke-dasharray:8.8
            8.8;}.cls-17{stroke-dasharray:9.34 9.34;}
        </style>
    </defs>
    <title>Artboard 1</title>
    <rect class="cls-1" x="0.35" y="-0.47" width="444.1" height="319.54"/>
    <polyline class="cls-2"
              points="101.78 207.17 144.35 206.22 145.86 217.7 85.52 217.68 0.35 268.41 0.35 252.15 66.38 213.87 0.35 167.94 0.35 153.59 80.71 206.26"/>
    <polygon class="cls-3" points="1.33 293.27 1.33 318.09 20.47 305.68 1.33 293.27"/>
    <polygon class="cls-3" points="28.1 299.99 13.75 288.51 58.72 256.93 78.82 268.41 28.1 299.99"/>
    <polygon class="cls-3" points="19.49 318.09 87.43 272.22 105.61 283.7 62.55 318.09 19.49 318.09"/>
    <polygon class="cls-3"
             points="79.8 318.09 123.81 281.79 97.98 267.44 123.81 247.34 168.79 267.44 112.33 318.09 79.8 318.09"/>
    <polygon class="cls-3" points="84.65 260.6 115.75 240.06 78.82 223.4 46.28 241.05 84.65 260.6"/>
    <polygon class="cls-3" points="152.95 223.4 132.41 242 176.82 263.38 199.59 243.39 152.95 223.4"/>
    <polygon class="cls-3" points="126.3 316.68 152.95 294.25 227.91 294.25 227.91 316.68 126.3 316.68"/>
    <rect class="cls-3" x="249.75" y="292.25" width="12.66" height="24.43"/>
    <polygon class="cls-3" points="1.33 226.74 1.33 252.15 23.25 239.44 1.33 226.74"/>
    <polygon class="cls-3" points="32.41 233.56 4.7 218.41 46.28 199.89 66.38 213.87 32.41 233.56"/>
    <polygon class="cls-3" points="1.33 213.41 1.33 203.97 8.45 208.69 1.33 213.41"/>
    <polygon class="cls-3" points="15.71 206.54 5.82 197.67 28.52 187.53 40.03 195.54 15.71 206.54"/>
    <polygon class="cls-3" points="1.33 194.37 25.84 184.99 13.59 177.65 1.33 183.98 1.33 194.37"/>
    <polygon class="cls-3" points="11.31 159.16 29.17 151.8 42.48 161.98 26.89 168.24 11.31 159.16"/>
    <polygon class="cls-3" points="29.93 172.03 49.13 163.94 71.64 179.59 54.61 188.51 29.93 172.03"/>
    <polygon class="cls-3" points="60.6 193.35 100.98 168.89 114.87 182.33 79.73 206.26 60.6 193.35"/>
    <polygon class="cls-3" points="57.35 160.02 78.82 153.59 89.05 160.02 91 170.59 81.02 175.73 57.35 160.02"/>
    <polygon class="cls-3" points="82.84 149.85 93.94 158.26 96.09 143.59 82.84 149.85"/>
    <polygon class="cls-3" points="50.79 159.16 40.03 149.46 105.61 124.41 110.96 134.19 50.79 159.16"/>
    <polygon class="cls-3" points="1.33 150.04 14.56 141.78 23.1 148.36 8.8 155.54 1.33 150.04"/>
    <polygon class="cls-3" points="1.33 133.41 6.8 138.11 1.33 141.78 1.33 133.41"/>
    <polygon class="cls-3" points="78.82 100.53 91 108.75 109.01 102.1 98.44 95.45 78.82 100.53"/>
    <polygon class="cls-3"
             points="105.61 93.1 115.75 100.14 134.84 100.14 140.71 95.45 135.23 90.75 109.01 90.75 105.61 93.1"/>
    <polygon class="cls-3" points="105.61 116.58 100.4 110.71 114.09 105.23 105.61 116.58"/>
    <polygon class="cls-3" points="171.04 120.7 150.32 104.96 152.25 97.42 182.66 115.01 171.04 120.7"/>
    <polygon class="cls-3"
             points="193.08 100.82 172.42 88.23 177.27 79.21 198.13 71.19 201.99 76.03 193.04 83.11 201.72 94.05 193.08 100.82"/>
    <polygon class="cls-3" points="207.13 91.14 200.03 83.11 210.32 75.68 215.79 82.58 207.13 91.14"/>
    <polygon class="cls-3" points="172.46 72.17 177.27 76.66 193.31 70.24 187.7 66.39 172.46 72.17"/>
    <polygon class="cls-3" points="197.8 64.47 206.47 72.17 233.25 61.47 226.52 54.41 197.8 64.47"/>
    <polygon class="cls-3" points="35.54 77.29 40.03 72.47 35.54 70.55 20.36 77.29 35.54 77.29"/>
    <polygon class="cls-3" points="42.48 77.29 46.28 71.19 89.47 70.55 87.74 77.29 42.48 77.29"/>
    <polygon class="cls-3" points="98.01 70.55 112.77 39.1 134.91 34.07 123.16 67.98 98.01 70.55"/>
    <polygon class="cls-3" points="82.84 54.18 99.03 54.18 91 67.02 77.47 67.02 82.84 54.18"/>
    <polygon class="cls-3" points="86.78 44.56 84.86 49.37 98.01 49.37 103.14 40.7 86.78 44.56"/>
    <polygon class="cls-3" points="62.55 49.37 50.79 67.02 71.64 67.02 81.02 45.04 62.55 49.37"/>
    <polygon class="cls-3" points="138.12 65.41 128.81 63.49 138.12 34.07 151.28 34.07 138.12 65.41"/>
    <polygon class="cls-3" points="166 63.49 169.57 45.04 160.9 40.7 151.28 70.55 166 63.49"/>
    <polygon class="cls-3" points="171.45 60.91 174.01 46.79 198.08 54.65 171.45 60.91"/>
    <polygon class="cls-3" points="1.33 54.82 19.19 55.63 1.33 67.02 1.33 54.82"/>
    <polygon class="cls-3" points="20.36 43.16 26.89 34.07 40.03 34.07 33.05 43.16 20.36 43.16"/>
    <polygon class="cls-3" points="1.33 43.16 13.59 43.16 17.79 38.62 1.33 38.62 1.33 43.16"/>
    <polygon class="cls-3" points="93.91 21.23 84.86 34.07 123.16 26.05 132.41 10.7 93.91 21.23"/>
    <polygon class="cls-3" points="142.93 8.07 134.91 24.3 151.28 24.3 160.9 5.43 142.93 8.07"/>
    <polygon class="cls-3" points="18.21 121.26 26.89 127.84 66.38 112.92 60.69 106.8 18.21 121.26"/>
    <polygon class="cls-4"
             points="3.09 127.84 18.21 137.6 89.47 113.36 74.17 102.1 60.69 106.8 66.38 112.92 26.89 127.84 18.21 121.26 3.09 127.84"/>
    <polygon class="cls-4" points="0.35 34.07 20.36 34.07 16.81 38.62 0.35 38.62 0.35 34.07"/>
    <polygon class="cls-4" points="0.35 281.39 5.82 283.69 53.23 254.19 40.03 244.77 0.35 268.41 0.35 281.39"/>
    <polygon class="cls-5"
             points="161.29 286.63 205.46 250.24 212.4 254.66 219.02 258.88 225.11 263.38 230.68 267.86 236.18 273.2 241.46 280.06 245.32 286.22 161.29 286.63"/>
    <path class="cls-5"
          d="M.35,119.85v-11.1L32.87,97.81c.55.65,1.41,1.48,2,2a7,7,0,0,0,2.64,1.24l1.27.09,1.42.1a13,13,0,0,0,3.65-.23,6.43,6.43,0,0,0,3.45-1.28c2,1.11,2.92,1.24,4.88,2.34Z"/>
    <path class="cls-5"
          d="M55.6,100.14l-5.79-3.71.81-2a3.33,3.33,0,0,0-.12-1.79,4.76,4.76,0,0,0-.78-2L48,89.16l1.39-4.82h54.94L98,87.2Z"/>
    <path class="cls-5"
          d="M.35,105.23V98.78L12.61,84.34H46.28l-1.85,3.84c.12-.27-3.53-.43-5.68,0a16.92,16.92,0,0,0-2.58.82,7.51,7.51,0,0,0-2.51,1.67s-1,1.55-1,1.57a6.45,6.45,0,0,0-.53,3.21Z"/>
    <polygon class="cls-5" points="0.35 30.66 44.17 30.66 66.38 7.8 0.35 7.8 0.35 30.66"/>
    <polygon class="cls-6" points="0.35 52.87 0.35 45.81 31.98 46.21 26.25 53.2 0.35 52.87"/>
    <polygon class="cls-6"
             points="65.97 40.7 125.16 28.86 178.86 25.62 182.72 30.79 127.23 34.07 60.19 47.77 65.97 40.7"/>
    <polygon class="cls-2" points="0.35 128.67 0.35 117.89 98.01 87.2 104.31 84.33 109.52 90.17 0.35 128.67"/>
    <polygon class="cls-2"
             points="17.19 78.27 103.14 79.47 109.01 74.93 118.91 72.3 130.13 70.55 140.05 71.59 152.34 77.29 152.34 82.38 147.56 86.87 135.23 90.75 109.98 90.75 104.34 84.33 12.61 84.33 0.35 98.78 0.35 82.38 11.31 80.18 17.19 78.27"/>
    <polygon class="cls-7"
             points="114.09 82.58 116.07 78.25 126.57 76.31 137.29 77.29 140.05 79.93 139.21 82.58 134.91 85.67 117.24 85.67 114.09 82.58"/>
    <polygon class="cls-2"
             points="139.42 71.53 153.23 32.12 163.84 30.93 149.32 72.5 168.44 65.55 174.38 63.84 279.86 29.73 288.13 32.89 152.34 77.29 139.42 71.53"/>
    <polygon class="cls-2"
             points="0.35 3.86 120.67 3.86 109.52 7.8 74.17 7.8 66.38 19.23 54.94 24.3 66.38 7.8 0.35 7.8 0.35 3.86"/>
    <path class="cls-8"
          d="M.35,74.45C14.63,71.58,23.67,66,29.19,61.66s10.07-9.6,17.44-18C55.37,33.65,57,30.36,62.9,26.2a50.37,50.37,0,0,1,18.52-7.75c21.34-5.09,72.9-17,72.63-18.92-.08-.57-5-.53-8.92,0a64.81,64.81,0,0,0-8.68,2.07C132.42,2.67,130.8,2.91,126,4c-6.7,1.47-11.83,2.81-30,7.35-21.42,5.36-22.66,5.59-26.6,7.06-7.84,2.91-13.94,4.27-19.32,9.17a62.38,62.38,0,0,0-7.06,7.77c-3,3.85-3.32,5.23-6.12,9a65.55,65.55,0,0,1-8.25,9c-4.2,3.92-7.57,7.06-12.71,9.65A40.33,40.33,0,0,1,.35,67Z"/>
    <path class="cls-8"
          d="M.35,82.38c21-2.12,32.83-9.35,39.87-15.76,6.69-6.09,17-18.69,19-21.15,7-8.63,9.82-12.9,16.27-17.44A50.21,50.21,0,0,1,94,20.28C111.91,16.13,171.24,1.91,170.9-.47c-.1-.7-16.35,2.18-21.87,3.91A100.17,100.17,0,0,1,138.6,5.79c-6.71,1.47-11.83,2.81-30,7.35C87.19,18.5,86,18.73,82,20.2c-7.84,2.91-13.94,4.27-19.32,9.17a61.62,61.62,0,0,0-7.06,7.77c-3,3.85-3.33,5.23-6.13,9A65,65,0,0,1,41.26,55a86.29,86.29,0,0,1-12.71,9.65A109.13,109.13,0,0,1,.35,77Z"/>
    <polygon class="cls-8" points="153.38 2.31 160.42 -0.58 170.9 -0.47 156.06 4.78 153.38 2.31"/>
    <polygon class="cls-2"
             points="444.45 268.36 444.45 252.1 378.43 213.82 444.45 167.89 444.45 153.54 364.09 206.21 152.26 79.3 139.83 86 343.02 207.12 142.99 206.17 145.39 217.65 359.29 217.63 444.45 268.36"/>
    <polygon class="cls-3" points="443.47 294.2 443.47 319.02 424.33 306.61 443.47 294.2"/>
    <polygon class="cls-3" points="416.7 299.94 431.05 288.46 386.08 256.88 365.99 268.36 416.7 299.94"/>
    <polygon class="cls-3" points="424.33 318.04 356.4 272.17 338.21 283.65 381.27 318.04 424.33 318.04"/>
    <polygon class="cls-3"
             points="365.01 318.04 320.99 281.74 346.83 267.39 320.99 247.29 276.02 267.39 332.47 318.04 365.01 318.04"/>
    <polygon class="cls-3" points="360.15 260.56 305.58 223.38 363.05 223.35 394.61 242.96 360.15 260.56"/>
    <polygon class="cls-3" points="291.86 223.35 312.4 241.96 267.98 263.33 245.22 243.34 291.86 223.35"/>
    <rect class="cls-3" x="233.25" y="292.2" width="12.66" height="24.43"/>
    <polygon class="cls-3" points="443.47 226.69 443.47 252.1 421.56 239.39 443.47 226.69"/>
    <polygon class="cls-3" points="412.39 233.51 440.1 218.36 398.52 199.84 378.43 213.82 412.39 233.51"/>
    <polygon class="cls-3" points="443.47 213.36 443.47 203.92 436.35 208.64 443.47 213.36"/>
    <polygon class="cls-3" points="429.1 206.49 438.98 197.62 416.29 187.48 404.77 195.49 429.1 206.49"/>
    <polygon class="cls-3" points="443.47 194.32 418.97 184.94 431.22 177.6 443.47 183.93 443.47 194.32"/>
    <polygon class="cls-3" points="433.49 159.11 415.64 151.75 402.33 161.93 417.91 168.19 433.49 159.11"/>
    <polygon class="cls-3" points="414.87 171.98 395.68 163.89 373.16 179.54 390.2 188.46 414.87 171.98"/>
    <polygon class="cls-3" points="385.19 191.34 356.54 173.73 339.71 191.09 365.07 206.21 385.19 191.34"/>
    <polygon class="cls-3" points="443.47 147.06 431.22 141.74 425.62 144.4 439.91 153.54 443.47 147.06"/>
    <polygon class="cls-3" points="442.49 133.36 437.02 138.06 442.49 141.74 442.49 133.36"/>
    <polygon class="cls-3" points="365.99 100.49 352.82 111.64 337.75 104.99 346.37 95.4 365.99 100.49"/>
    <polygon class="cls-3" points="409.26 77.24 404.77 72.42 409.26 70.5 424.45 77.24 409.26 77.24"/>
    <polygon class="cls-3" points="402.33 77.24 398.52 71.14 355.34 70.5 357.06 77.24 402.33 77.24"/>
    <polygon class="cls-3" points="346.79 77.34 332.03 39.05 311.85 37.94 324.58 77.71 346.79 77.34"/>
    <polygon class="cls-3" points="361.96 54.13 345.78 54.13 353.8 66.97 367.33 66.97 361.96 54.13"/>
    <polygon class="cls-3" points="358.02 44.51 359.95 49.32 346.79 49.32 341.67 40.66 358.02 44.51"/>
    <polygon class="cls-3" points="382.25 49.32 394.02 66.97 373.16 66.97 363.79 44.99 382.25 49.32"/>
    <polygon class="cls-3" points="307.66 79.06 318.92 80.06 306.68 37.94 293.53 37.94 307.66 79.06"/>
    <polygon class="cls-3" points="286.63 71.26 275.24 38.14 289.77 38.7 303.31 78.32 286.63 71.26"/>
    <polygon class="cls-3" points="442.49 54.77 424.64 55.58 442.49 66.97 442.49 54.77"/>
    <polygon class="cls-3" points="424.45 43.12 417.91 34.02 404.77 34.02 411.76 43.12 424.45 43.12"/>
    <polygon class="cls-3" points="443.47 43.12 431.22 43.12 427.01 38.57 443.47 38.57 443.47 43.12"/>
    <polygon class="cls-3" points="350.89 21.18 359.95 34.02 321.65 26 312.4 10.65 350.89 21.18"/>
    <polygon class="cls-3" points="301.88 8.02 309.89 24.25 293.53 24.25 283.9 5.38 301.88 8.02"/>
    <polygon class="cls-3" points="426.59 121.21 417.91 127.79 378.43 112.87 384.12 106.75 426.59 121.21"/>
    <polygon class="cls-4"
             points="441.72 127.79 426.59 139.5 355.34 113.31 370.63 102.05 384.12 106.75 378.43 112.87 417.91 127.79 426.59 121.21 441.72 127.79"/>
    <polygon class="cls-4" points="444.45 34.02 424.45 34.02 427.99 38.57 444.45 38.57 444.45 34.02"/>
    <polygon class="cls-4"
             points="444.45 281.34 438.98 283.64 391.58 254.14 404.77 244.72 444.45 268.36 444.45 281.34"/>
    <path class="cls-5"
          d="M444.45,119.8V108.7L411.94,97.76c-.55.65-1.41,1.48-2,2a7.13,7.13,0,0,1-2.64,1.24l-1.28.09-1.41.1A13.35,13.35,0,0,1,401,101a6.52,6.52,0,0,1-3.45-1.29c-1.95,1.11-2.93,1.24-4.88,2.34Z"/>
    <path class="cls-5"
          d="M389.2,100.09l5.8-3.71s-.81-2-.81-2a3.25,3.25,0,0,1,.11-1.79,4.87,4.87,0,0,1,.79-2s1.72-1.47,1.73-1.48l-1.38-4.82H340.5l6.29,2.86Z"/>
    <path class="cls-5"
          d="M444.45,105.18V98.74L432.2,84.29H398.53l1.84,3.84c-.11-.27,3.54-.43,5.69,0a16.62,16.62,0,0,1,2.57.82,7.4,7.4,0,0,1,2.51,1.67s1,1.55,1,1.57a6.45,6.45,0,0,1,.53,3.21Z"/>
    <polygon class="cls-5" points="444.45 30.61 400.63 30.61 378.43 7.75 444.45 7.75 444.45 30.61"/>
    <polygon class="cls-6" points="444.45 52.82 444.45 45.76 412.83 46.16 418.56 53.16 444.45 52.82"/>
    <polygon class="cls-2"
             points="444.45 3.81 324.14 3.81 335.28 7.75 370.63 7.75 378.43 19.18 389.87 24.25 378.43 7.75 444.45 7.75 444.45 3.81"/>
    <path class="cls-8"
          d="M444.45,74.4c-14.27-2.87-23.32-8.41-28.83-12.79s-10.08-9.6-17.44-18c-8.74-10-10.35-13.28-16.28-17.44a50.27,50.27,0,0,0-18.51-7.75C342,13.31,290.48,1.35,290.75-.52c.08-.57,5-.53,8.93,0a66.3,66.3,0,0,1,8.67,2.07c4,1.07,5.66,1.31,10.44,2.36,6.7,1.46,11.82,2.8,30,7.34,21.43,5.36,22.66,5.59,26.61,7.06,7.83,2.92,13.93,4.27,19.31,9.17a63.81,63.81,0,0,1,7.07,7.77c3,3.85,3.32,5.23,6.12,9a65.59,65.59,0,0,0,8.24,8.95c4.2,3.92,7.57,7.07,12.72,9.65A40.27,40.27,0,0,0,444.45,67Z"/>
    <path class="cls-8"
          d="M444.45,82.33c-20.94-2.12-32.83-9.35-39.87-15.76-6.68-6.08-17-18.69-19-21.15-7.05-8.63-9.83-12.9-16.28-17.44a50.15,50.15,0,0,0-18.51-7.75C332.9,16.08,273.56,1.86,273.9-.52c.1-.7,16.36,2.18,21.87,3.91a98.35,98.35,0,0,0,10.44,2.35c6.7,1.47,11.83,2.81,30,7.35,21.43,5.36,22.66,5.59,26.61,7.06,7.83,2.91,13.93,4.27,19.31,9.17a63,63,0,0,1,7.07,7.77c3,3.85,3.32,5.23,6.12,8.95a65.59,65.59,0,0,0,8.24,9,86.64,86.64,0,0,0,12.72,9.65,108.94,108.94,0,0,0,28.19,12.29Z"/>
    <polygon class="cls-8" points="291.43 2.26 284.38 -0.63 273.9 -0.52 288.74 4.73 291.43 2.26"/>
    <polygon class="cls-3" points="333.23 186.54 349.69 169.17 281.1 127.79 265.85 145.42 333.23 186.54"/>
    <polygon class="cls-3" points="259.1 142.21 273.67 124.41 231.76 98.86 213.88 114.51 259.1 142.21"/>
    <polygon class="cls-3" points="371.59 173.4 394.51 157.28 336.18 127.79 322.18 144.67 371.59 173.4"/>
    <polygon class="cls-3"
             points="238.01 93.21 315.77 142.6 330.3 126.48 289.27 102.21 299.56 90.03 263.49 69.82 238.01 93.21"/>
    <polygon class="cls-3" points="300.37 99.76 314.78 84.05 341.93 93.1 324.14 113.59 300.37 99.76"/>
    <polygon class="cls-3" points="401.45 154.02 341.29 125.39 351.66 115.94 420.85 142.71 401.45 154.02"/>
    <polygon class="cls-3" points="278.51 4.35 287.57 25.02 249.27 22.87 245.89 1.64 278.51 4.35"/>
    <polygon class="cls-3" points="213.26 3.6 213.46 22.76 197.09 22.76 197.25 3.9 213.26 3.6"/>
    <polygon class="cls-3" points="217.79 22.76 245.89 23.27 242.8 1.64 217.79 2.1 217.79 22.76"/>
    <polygon class="cls-3" points="240.02 51.89 256.54 45.55 267.81 42.61 281.69 69.95 240.02 51.89"/>
    <polygon class="cls-3" points="189.61 118.92 208.83 131 183.37 144.07 165.69 126.51 189.61 118.92"/>
    <polygon class="cls-3"
             points="158.17 124.94 179.16 147.05 142.04 166.42 120.22 143.02 134.53 135.07 158.17 124.94"/>
    <polygon class="cls-3" points="129.06 185.17 144.56 173.41 183.38 203.22 155.3 203.59 129.06 185.17"/>
    <polygon class="cls-3"
             points="147.74 170.53 198.62 206.69 230.19 190.47 210.03 173.4 195.5 179.6 170.79 157.28 147.74 170.53"/>
    <polygon class="cls-3"
             points="215.67 133.88 178.04 156.13 194.21 171.34 210.26 164.14 218.63 171.34 249.11 154.18 215.67 133.88"/>
    <polygon class="cls-3" points="223.28 176.57 255.25 156.88 297.7 181.99 261.34 203.09 223.28 176.57"/>
    <polygon class="cls-3" points="219.02 205.51 237.5 193.35 260.96 207.66 219.02 205.51"/>
    <polygon class="cls-3" points="303.05 185.31 278.51 200.82 331.89 202.46 303.05 185.31"/>
    <polygon class="cls-3" points="268.05 275.45 313.02 317.06 265.9 316.65 263.95 278.41 268.05 275.45"/>
    <polygon class="cls-3"
             points="121.64 135.84 137.87 127.34 160.42 119.85 140.05 102.1 120.22 110.91 110.96 118.92 121.64 135.84"/>
    <polygon class="cls-3" points="100.4 160.57 103.14 147.64 110.96 141.78 135.69 170.46 120.22 181.22 100.4 160.57"/>
    <polygon class="cls-3" points="93.91 206.84 110.96 193.05 127.07 193.05 142.99 207.14 93.91 206.84"/>
    <polygon class="cls-3" points="27.87 139.78 89.47 117.94 96.09 123.43 35.7 147 27.87 139.78"/>
    <polygon class="cls-3" points="170.9 217.65 218.83 248.27 236.13 239.44 223.47 229.48 282.67 217.65 170.9 217.65"/>
    <polygon class="cls-3" points="227.19 256.88 238.01 248.32 261.47 268.36 250.67 275.45 227.19 256.88"/>
    <polygon class="cls-3" points="198.9 104.7 218.77 85.47 228.17 93.49 207.56 109.93 198.9 104.7"/>
    <polygon class="cls-3" points="169.57 31.57 198.9 31.23 200.6 47.77 163.84 30.93 169.57 31.57"/>
    <polygon class="cls-3" points="205.28 31.38 205.28 45.81 226.78 42.61 226.78 31.89 205.28 31.38"/>
    <polygon class="cls-3" points="232.8 32.03 232.8 40.66 260.85 32.69 232.8 32.03"/>
    <polygon class="cls-3" points="162.14 22.34 166.75 4.78 190.92 3.6 190.92 22.34 162.14 22.34"/>
    <polygon class="cls-3" points="233.8 89.92 216.09 75.68 242.52 60.35 256.52 69.57 233.8 89.92"/>
    <polygon class="cls-6"
             points="378.83 40.66 319.64 28.82 178.86 25.62 177.98 30.74 317.57 34.02 384.61 47.72 378.83 40.66"/>
    <circle class="cls-9" cx="213.83" cy="123.15" r="9.69"/>
    <circle class="cls-1" cx="213.83" cy="123.15" r="4.81"/>
    <circle class="cls-9" cx="358.53" cy="211.98" r="9.69"/>
    <circle class="cls-1" cx="358.53" cy="211.98" r="4.81"/>
    <path class="cls-10"
          d="M135.06,197.71l-.11,7.71a5,5,0,0,1-2.55,4.29l-6.73,3.76a5,5,0,0,1-5-.07l-6.63-3.94a5,5,0,0,1-2.43-4.35l.1-7.71a5,5,0,0,1,2.55-4.28l6.73-3.77a5,5,0,0,1,5,.07l6.62,3.94A5,5,0,0,1,135.06,197.71Z"/>
    <circle class="cls-9" cx="145.86" cy="79.67" r="9.69"/>
    <circle class="cls-1" cx="145.86" cy="79.67" r="4.81"/>
    <path class="cls-11"
          d="M166.22,19.89a13.31,13.31,0,0,1-1.67,6,54.89,54.89,0,0,1-7.86,11.21c-.4.46-.62.37-1,0A51,51,0,0,1,147.4,25c-1.72-3.8-1.77-7.5.8-11a10,10,0,0,1,18,5.92Zm-9.93-5.58a5.71,5.71,0,1,0-.11,11.41,5.71,5.71,0,0,0,.11-11.41Z"/>
    <line class="cls-12" x1="154.89" y1="42.63" x2="153.46" y2="46.9"/>
    <line class="cls-13" x1="151.7" y1="52.19" x2="149.06" y2="60.13"/>
    <line class="cls-12" x1="148.18" y1="62.78" x2="146.75" y2="67.04"/>
    <path class="cls-14"
          d="M154.76,43A7.36,7.36,0,0,0,158.57,46a13.64,13.64,0,0,1-2.56-6.7A14.46,14.46,0,0,1,150,43.08,7.61,7.61,0,0,0,154.76,43Z"/>
    <line class="cls-12" x1="157.1" y1="89.28" x2="160.94" y2="91.62"/>
    <line class="cls-15" x1="168.62" y1="96.3" x2="195.52" y2="112.68"/>
    <line class="cls-12" x1="199.37" y1="115.02" x2="203.21" y2="117.36"/>
    <path class="cls-14"
          d="M157.44,89.49a7.34,7.34,0,0,0,3.72-3.06,13.62,13.62,0,0,1-7.11,1,14.39,14.39,0,0,1,2.38,6.77A7.68,7.68,0,0,0,157.44,89.49Z"/>
    <line class="cls-12" x1="227.31" y1="131.66" x2="231.17" y2="133.98"/>
    <line class="cls-16" x1="238.71" y1="138.51" x2="340.54" y2="199.65"/>
    <line class="cls-12" x1="344.31" y1="201.92" x2="348.16" y2="204.23"/>
    <path class="cls-14"
          d="M227.66,131.87a7.36,7.36,0,0,0,3.69-3.08,13.67,13.67,0,0,1-7.09,1,14.46,14.46,0,0,1,2.41,6.75A7.61,7.61,0,0,0,227.66,131.87Z"/>
    <line class="cls-12" x1="343.23" y1="213.39" x2="338.73" y2="213.37"/>
    <line class="cls-17" x1="329.39" y1="213.32" x2="147.29" y2="212.36"/>
    <line class="cls-12" x1="142.62" y1="212.33" x2="138.12" y2="212.31"/>
    <path class="cls-14"
          d="M342.83,213.39a7.38,7.38,0,0,0-1.61,4.53,13.77,13.77,0,0,1,5.57-4.51,14.37,14.37,0,0,1-5.52-4.58A7.68,7.68,0,0,0,342.83,213.39Z"/>
</svg>
